<svg xmlns="http://www.w3.org/2000/svg" viewBox="0 0 24 24">
  <title>Tailwind CSS</title>
  <path fill="#06B6D4" d="M12.001,4.8c-3.2,0-5.2,1.6-6,4.8c1.2-1.6,2.6-2.2,4.2-1.8c0.913,0.228,1.565,0.921,2.288,1.674 C13.662,10.61,15.067,12,18.001,12c3.2,0,5.2-1.6,6-4.8c-1.2,1.6-2.6,2.2-4.2,1.8c-0.913-0.228-1.565-0.921-2.288-1.674 C16.341,6.19,14.935,4.8,12.001,4.8z M6.001,12c-3.2,0-5.2,1.6-6,4.8c1.2-1.6,2.6-2.2,4.2-1.8c0.913,0.228,1.565,0.921,2.288,1.674 c1.173,1.234,2.579,2.726,5.512,2.726c3.2,0,5.2-1.6,6-4.8c-1.2,1.6-2.6,2.2-4.2,1.8c-0.913-0.228-1.565-0.921-2.288-1.674 C10.341,13.39,8.935,12,6.001,12z"/>
</svg>